<svg xmlns="http://www.w3.org/2000/svg" xmlns:xlink="http://www.w3.org/1999/xlink" version="1.1" id="Your_Icon" x="0px" y="0px" width="100px" height="100px" viewBox="0 0 100 100" enable-background="new 0 0 100 100" xml:space="preserve">
<path fill="#000000" d="M60.394,5H39.606L27.583,31.907L38.792,94.78l22.417-0.062l11.209-62.793L60.394,5z M60.366,33.922  c-0.022,0.017-0.042,0.036-0.058,0.058l-1.521,2.095c-0.029,0.042-0.082,0.067-0.137,0.067c-0.021,0-0.043-0.004-0.062-0.012  l-5.465-2.139c-0.006-0.002-0.014-0.004-0.02-0.005l-0.537-0.173c-0.027-0.009-0.07-0.013-0.099-0.013  c-0.056,0-0.196,0.018-0.243,0.051C52.154,33.901,52,33.983,52,34.069v8.458c0,0.036,0.121,0.072,0.135,0.105l2.441,5.548  c0.027,0.066,0.045,0.154-0.006,0.196l-1.965,1.635c-0.02,0.017-0.033,0.034-0.047,0.055l-2.07,3.007  c-0.057,0.082-0.116,0.123-0.131,0.127c-0.02-0.004-0.08-0.045-0.137-0.121l-2.197-3.041c-0.015-0.02-0.028-0.037-0.047-0.053  l-2.105-1.679c-0.062-0.05-0.078-0.128-0.054-0.188l2.119-5.429C47.948,42.66,48,42.627,48,42.594v-8.524  c0-0.089-0.089-0.171-0.161-0.222c-0.046-0.032-0.149-0.048-0.203-0.048c-0.031,0-0.062,0.005-0.092,0.017l-0.474,0.175l-5.461,2.14  c-0.019,0.007-0.039,0.011-0.059,0.011c-0.051,0-0.099-0.024-0.13-0.065l-1.6-2.136c-0.017-0.023-0.038-0.043-0.061-0.059  l-2.956-2.068c-0.043-0.03-0.069-0.08-0.069-0.133c0-0.055,0.026-0.106,0.067-0.136l2.962-2.109c0.02-0.014,0.037-0.03,0.052-0.048  l1.666-2.018c0.032-0.038,0.074-0.059,0.119-0.059c0.021,0,0.042,0.004,0.062,0.013l5.456,2.324l0.42,0.173  c0.033,0.014,0.068,0.021,0.103,0.021c0.044,0,0.089-0.011,0.129-0.033c0.071-0.039,0.122-0.108,0.136-0.188l0.051-0.273  c0.003-0.016,0.004-0.033,0.004-0.049c0-0.143-0.032-0.489-0.15-0.767l-1.983-5.094c-0.027-0.069-0.004-0.147,0.056-0.191l2.14-1.55  c0.021-0.015,0.04-0.034,0.056-0.055l2.146-2.806c0.031-0.041,0.078-0.064,0.128-0.064c0.053,0,0.104,0.026,0.133,0.067l2.021,2.803  c0.016,0.022,0.032,0.042,0.055,0.059l1.996,1.491c0.059,0.043,0.062,0.123,0.033,0.193l-2.308,5.215  C52.219,28.769,52,29.086,52,29.301v0.27c0,0.088,0.156,0.17,0.228,0.221c0.046,0.032,0.186,0.049,0.24,0.049  c0.03,0,0.075-0.005,0.104-0.016l0.495-0.173c0.005-0.002,0.013-0.004,0.019-0.006l5.467-2.322c0.021-0.008,0.043-0.013,0.064-0.013  c0.051,0,0.098,0.023,0.129,0.062l1.566,1.975c0.014,0.018,0.03,0.034,0.049,0.048l2.84,2.152c0.04,0.03,0.063,0.078,0.063,0.129  s-0.025,0.103-0.066,0.134L60.366,33.922z"/>
</svg>